<?xml version="1.0" standalone="no"?>
<!DOCTYPE svg PUBLIC "-//W3C//DTD SVG 20010904//EN"
 "http://www.w3.org/TR/2001/REC-SVG-20010904/DTD/svg10.dtd">
<svg version="1.0" xmlns="http://www.w3.org/2000/svg"
 width="300.000000pt" height="300.000000pt" viewBox="0 0 300.000000 300.000000"
 preserveAspectRatio="xMidYMid meet">
<metadata>
Created by potrace 1.11, written by Peter Selinger 2001-2013
</metadata>
<g transform="translate(0.000000,300.000000) scale(0.100000,-0.100000)"
fill="#000000" stroke="none">
<path d="M566 2697 c-16 -16 -26 -41 -31 -78 -4 -30 -8 -61 -10 -69 -2 -8 -8
-44 -14 -80 -6 -36 -13 -76 -16 -90 -3 -14 -12 -68 -21 -120 -17 -102 -19
-109 -33 -185 -6 -27 -12 -66 -15 -85 -3 -19 -12 -71 -20 -115 -9 -44 -18 -93
-21 -110 -2 -16 -7 -39 -9 -50 -2 -11 -7 -40 -11 -65 -4 -25 -9 -54 -11 -65
-2 -11 -9 -47 -14 -80 -5 -33 -12 -71 -15 -85 -8 -38 -34 -190 -40 -235 -4
-22 -8 -48 -11 -57 -3 -10 -7 -28 -9 -40 -5 -29 -55 -315 -60 -348 -3 -14 -15
-79 -26 -145 -12 -66 -23 -131 -26 -145 -15 -86 -15 -127 2 -143 18 -19 18
-19 235 -18 146 0 155 1 170 21 11 15 27 96 48 238 18 120 34 228 37 242 7 46
16 105 21 135 3 28 8 61 19 125 2 14 9 61 15 105 7 44 13 87 15 95 4 20 16 99
20 130 4 29 16 108 20 130 1 8 6 39 10 68 4 28 11 52 16 52 5 0 9 -4 9 -9 0
-5 18 -49 41 -98 22 -48 46 -101 54 -118 7 -16 27 -59 43 -95 16 -36 87 -193
157 -350 70 -157 142 -316 160 -355 17 -38 56 -124 85 -190 68 -153 77 -163
143 -163 50 0 97 18 97 38 0 5 13 37 29 72 16 35 131 293 256 573 124 281 235
528 245 550 11 22 30 67 43 99 29 71 29 71 56 -109 25 -161 31 -203 36 -235 2
-14 9 -56 15 -95 6 -38 17 -110 25 -160 8 -49 26 -166 40 -260 14 -93 28 -179
30 -190 3 -11 7 -38 10 -60 14 -96 17 -112 26 -142 5 -17 17 -34 25 -37 8 -3
96 -6 196 -6 241 -2 231 -13 193 195 -7 44 -16 96 -19 115 -3 19 -8 46 -11 60
-6 28 -51 289 -96 549 -16 96 -32 177 -33 180 -2 3 -7 31 -11 61 -4 30 -11 78
-17 105 -9 50 -13 72 -23 130 -3 17 -7 41 -10 55 -3 14 -18 104 -35 200 -33
190 -35 206 -52 295 -6 33 -12 69 -13 80 -4 29 -14 82 -25 140 -5 28 -12 64
-15 80 -3 17 -7 39 -9 50 -2 11 -7 39 -11 62 -3 23 -13 47 -22 54 -16 14 -85
21 -121 13 -25 -5 -46 -46 -233 -451 -48 -106 -93 -200 -98 -210 -6 -10 -23
-47 -39 -83 -25 -55 -164 -355 -344 -740 -25 -52 -51 -110 -59 -128 -7 -17
-16 -32 -20 -32 -3 0 -16 24 -29 53 -22 47 -47 101 -157 337 -20 41 -46 98
-58 125 -21 46 -314 675 -408 875 -22 47 -57 122 -78 168 -21 45 -44 82 -51
83 -7 0 -34 3 -61 5 -40 4 -51 1 -71 -19z"/>
</g>
</svg>
